<?xml version="1.0" encoding="UTF-8" standalone="no"?>
<!-- Created with Inkscape (http://www.inkscape.org/) -->

<svg
   xmlns:dc="http://purl.org/dc/elements/1.1/"
   xmlns:cc="http://creativecommons.org/ns#"
   xmlns:rdf="http://www.w3.org/1999/02/22-rdf-syntax-ns#"
   xmlns:svg="http://www.w3.org/2000/svg"
   xmlns="http://www.w3.org/2000/svg"
   xmlns:xlink="http://www.w3.org/1999/xlink"
   xmlns:sodipodi="http://sodipodi.sourceforge.net/DTD/sodipodi-0.dtd"
   xmlns:inkscape="http://www.inkscape.org/namespaces/inkscape"
   sodipodi:docname="icon.svg"
   inkscape:version="0.48.4 r9939"
   sodipodi:version="0.32"
   id="svg1288"
   height="48px"
   width="48px"
   inkscape:output_extension="org.inkscape.output.svg.inkscape"
   version="1.1">
  <defs
     id="defs3">
    <inkscape:perspective
       sodipodi:type="inkscape:persp3d"
       inkscape:vp_x="0 : 24 : 1"
       inkscape:vp_y="0 : 1000 : 0"
       inkscape:vp_z="48 : 24 : 1"
       inkscape:persp3d-origin="24 : 16 : 1"
       id="perspective48" />
    <linearGradient
       inkscape:collect="always"
       id="linearGradient5060">
      <stop
         style="stop-color:black;stop-opacity:1;"
         offset="0"
         id="stop5062" />
      <stop
         style="stop-color:black;stop-opacity:0;"
         offset="1"
         id="stop5064" />
    </linearGradient>
    <linearGradient
       id="linearGradient5048">
      <stop
         style="stop-color:black;stop-opacity:0;"
         offset="0"
         id="stop5050" />
      <stop
         id="stop5056"
         offset="0.5"
         style="stop-color:black;stop-opacity:1;" />
      <stop
         style="stop-color:black;stop-opacity:0;"
         offset="1"
         id="stop5052" />
    </linearGradient>
    <linearGradient
       id="linearGradient2563">
      <stop
         id="stop2565"
         offset="0"
         style="stop-color:#e2e2e2;stop-opacity:1;" />
      <stop
         id="stop2567"
         offset="1.0000000"
         style="stop-color:#9f9f9f;stop-opacity:1.0000000;" />
    </linearGradient>
    <linearGradient
       id="linearGradient2551"
       inkscape:collect="always">
      <stop
         id="stop2553"
         offset="0"
         style="stop-color:#000000;stop-opacity:1;" />
      <stop
         id="stop2555"
         offset="1"
         style="stop-color:#000000;stop-opacity:0;" />
    </linearGradient>
    <linearGradient
       id="linearGradient2526">
      <stop
         id="stop2528"
         offset="0.0000000"
         style="stop-color:#e7ebeb;stop-opacity:1.0000000;" />
      <stop
         style="stop-color:#e6ebeb;stop-opacity:1.0000000;"
         offset="0.50000000"
         id="stop2534" />
      <stop
         id="stop2530"
         offset="1.0000000"
         style="stop-color:#ffffff;stop-opacity:1.0000000;" />
    </linearGradient>
    <linearGradient
       gradientTransform="translate(0.000000,0.785718)"
       gradientUnits="userSpaceOnUse"
       y2="28.428572"
       x2="42.214283"
       y1="14.428571"
       x1="13.357142"
       id="linearGradient2532"
       xlink:href="#linearGradient2526"
       inkscape:collect="always" />
    <radialGradient
       gradientUnits="userSpaceOnUse"
       gradientTransform="matrix(1.000000,0.000000,0.000000,0.751938,1.196962e-16,7.193799)"
       r="18.428572"
       fy="29.000000"
       fx="26.000000"
       cy="29.000000"
       cx="26.000000"
       id="radialGradient2557"
       xlink:href="#linearGradient2551"
       inkscape:collect="always" />
    <radialGradient
       inkscape:collect="always"
       xlink:href="#linearGradient8662-1"
       id="radialGradient4982"
       gradientUnits="userSpaceOnUse"
       gradientTransform="matrix(1,0,0,0.536723,0,16.87306)"
       cx="24.837126"
       cy="36.421127"
       fx="24.837126"
       fy="36.421127"
       r="15.644737" />
    <linearGradient
       id="linearGradient8662-1"
       inkscape:collect="always">
      <stop
         id="stop8664-5"
         offset="0"
         style="stop-color:#000000;stop-opacity:1;" />
      <stop
         id="stop8666-2"
         offset="1"
         style="stop-color:#000000;stop-opacity:0;" />
    </linearGradient>
    <radialGradient
       inkscape:collect="always"
       xlink:href="#linearGradient8662-1"
       id="radialGradient4984"
       gradientUnits="userSpaceOnUse"
       gradientTransform="matrix(1,0,0,0.536723,0,16.87306)"
       cx="24.837126"
       cy="36.421127"
       fx="24.837126"
       fy="36.421127"
       r="15.644737" />
    <linearGradient
       inkscape:collect="always"
       xlink:href="#linearGradient4747-4"
       id="linearGradient4986"
       gradientUnits="userSpaceOnUse"
       gradientTransform="matrix(1.3614377,0,0,1.3614377,-1466.9178,-499.40198)"
       x1="215.56676"
       y1="573.56177"
       x2="566.89117"
       y2="573.56177" />
    <linearGradient
       id="linearGradient4747-4">
      <stop
         id="stop4749-0"
         offset="0"
         style="stop-color:#8ae234;stop-opacity:1;" />
      <stop
         id="stop4751-9"
         offset="1"
         style="stop-color:#4e9a06;stop-opacity:1;" />
    </linearGradient>
    <radialGradient
       inkscape:collect="always"
       xlink:href="#linearGradient8650-2"
       id="radialGradient4988"
       gradientUnits="userSpaceOnUse"
       gradientTransform="matrix(0,-27.993232,21.303526,0,-1218.0452,896.02059)"
       cx="24.53788"
       cy="0.40010813"
       fx="24.53788"
       fy="0.40010813"
       r="17.171415" />
    <linearGradient
       id="linearGradient8650-2"
       inkscape:collect="always">
      <stop
         id="stop8652-4"
         offset="0"
         style="stop-color:#ffffff;stop-opacity:1;" />
      <stop
         id="stop8654-5"
         offset="1"
         style="stop-color:#ffffff;stop-opacity:0;" />
    </linearGradient>
    <radialGradient
       inkscape:collect="always"
       xlink:href="#linearGradient4741-4"
       id="radialGradient4990"
       gradientUnits="userSpaceOnUse"
       gradientTransform="matrix(0,11.530061,13.952895,0,-991.90362,281.93475)"
       cx="11.319205"
       cy="22.454971"
       fx="11.319205"
       fy="22.454971"
       r="16.9562" />
    <linearGradient
       id="linearGradient4741-4">
      <stop
         id="stop4743-8"
         offset="0"
         style="stop-color:#729fcf;stop-opacity:1;" />
      <stop
         id="stop4745-8"
         offset="1"
         style="stop-color:#3465a4;stop-opacity:1;" />
    </linearGradient>
    <radialGradient
       inkscape:collect="always"
       xlink:href="#linearGradient8650-2"
       id="radialGradient4992"
       gradientUnits="userSpaceOnUse"
       gradientTransform="matrix(0,27.993232,21.303526,0,-962.35338,-51.054971)"
       cx="24.53788"
       cy="0.40010813"
       fx="24.53788"
       fy="0.40010813"
       r="17.171415" />
    <linearGradient
       inkscape:collect="always"
       xlink:href="#linearGradient5048"
       id="linearGradient5133"
       gradientUnits="userSpaceOnUse"
       gradientTransform="matrix(2.774389,0,0,1.969706,-1892.179,-872.8854)"
       x1="302.85715"
       y1="366.64789"
       x2="302.85715"
       y2="609.50507" />
    <radialGradient
       inkscape:collect="always"
       xlink:href="#linearGradient5060"
       id="radialGradient5135"
       gradientUnits="userSpaceOnUse"
       gradientTransform="matrix(2.774389,0,0,1.969706,-1891.633,-872.8854)"
       cx="605.71429"
       cy="486.64789"
       fx="605.71429"
       fy="486.64789"
       r="117.14286" />
    <radialGradient
       inkscape:collect="always"
       xlink:href="#linearGradient5060"
       id="radialGradient5137"
       gradientUnits="userSpaceOnUse"
       gradientTransform="matrix(-2.774389,0,0,1.969706,112.7623,-872.8854)"
       cx="605.71429"
       cy="486.64789"
       fx="605.71429"
       fy="486.64789"
       r="117.14286" />
    <linearGradient
       inkscape:collect="always"
       xlink:href="#linearGradient2563"
       id="linearGradient5139"
       gradientUnits="userSpaceOnUse"
       gradientTransform="translate(0,0.785718)"
       x1="6.7857148"
       y1="30.785713"
       x2="42.214284"
       y2="30.785713" />
    <linearGradient
       inkscape:collect="always"
       xlink:href="#linearGradient2526"
       id="linearGradient5141"
       gradientUnits="userSpaceOnUse"
       gradientTransform="translate(0,0.785718)"
       x1="13.357142"
       y1="14.428571"
       x2="42.214283"
       y2="28.428572" />
  </defs>
  <sodipodi:namedview
     inkscape:window-y="19"
     inkscape:window-x="0"
     inkscape:window-height="1059"
     inkscape:window-width="1918"
     inkscape:document-units="px"
     inkscape:grid-bbox="true"
     showgrid="false"
     inkscape:current-layer="layer1"
     inkscape:cy="40.802484"
     inkscape:cx="-48.345446"
     inkscape:zoom="5.6568542"
     inkscape:pageshadow="2"
     inkscape:pageopacity="0.0"
     borderopacity="1.0"
     bordercolor="#666666"
     pagecolor="#ffffff"
     id="base"
     inkscape:window-maximized="1" />
  <metadata
     id="metadata4">
    <rdf:RDF>
      <cc:Work
         rdf:about="">
        <dc:format>image/svg+xml</dc:format>
        <dc:type
           rdf:resource="http://purl.org/dc/dcmitype/StillImage" />
        <dc:title>Calendar</dc:title>
        <dc:creator>
          <cc:Agent>
            <dc:title>Jakub Steiner</dc:title>
          </cc:Agent>
        </dc:creator>
        <dc:source>http://jimmac.musichall.cz</dc:source>
        <dc:subject>
          <rdf:Bag>
            <rdf:li>calendar</rdf:li>
            <rdf:li>date</rdf:li>
            <rdf:li>time</rdf:li>
            <rdf:li>cal</rdf:li>
          </rdf:Bag>
        </dc:subject>
        <cc:license
           rdf:resource="http://creativecommons.org/licenses/publicdomain/" />
      </cc:Work>
      <cc:License
         rdf:about="http://creativecommons.org/licenses/publicdomain/">
        <cc:permits
           rdf:resource="http://creativecommons.org/ns#Reproduction" />
        <cc:permits
           rdf:resource="http://creativecommons.org/ns#Distribution" />
        <cc:permits
           rdf:resource="http://creativecommons.org/ns#DerivativeWorks" />
      </cc:License>
    </rdf:RDF>
  </metadata>
  <g
     inkscape:groupmode="layer"
     inkscape:label="Layer 1"
     id="layer1">
    <g
       id="g5114"
       transform="matrix(0.8700629,0,0,0.8700629,-0.04073136,-3.6959157)">
      <g
         id="g6707"
         transform="matrix(0.02294847,0,0,0.02276812,44.75587,36.74254)">
        <rect
           y="-150.69685"
           x="-1559.2523"
           height="478.35718"
           width="1339.6335"
           id="rect6709"
           style="opacity:0.40206185;color:#000000;fill:url(#linearGradient5133);fill-opacity:1;fill-rule:nonzero;stroke:none;stroke-width:1;marker:none;visibility:visible;display:inline;overflow:visible" />
        <path
           sodipodi:nodetypes="cccc"
           id="path6711"
           d="m -219.61876,-150.68038 c 0,0 0,478.33079 0,478.33079 142.874166,0.90045 345.40022,-107.16966 345.40014,-239.196175 0,-132.026537 -159.436816,-239.134595 -345.40014,-239.134615 z"
           style="opacity:0.40206185;color:#000000;fill:url(#radialGradient5135);fill-opacity:1;fill-rule:nonzero;stroke:none;stroke-width:1;marker:none;visibility:visible;display:inline;overflow:visible"
           inkscape:connector-curvature="0" />
        <path
           style="opacity:0.40206185;color:#000000;fill:url(#radialGradient5137);fill-opacity:1;fill-rule:nonzero;stroke:none;stroke-width:1;marker:none;visibility:visible;display:inline;overflow:visible"
           d="m -1559.2523,-150.68038 c 0,0 0,478.33079 0,478.33079 -142.8742,0.90045 -345.4002,-107.16966 -345.4002,-239.196175 0,-132.026537 159.4368,-239.134595 345.4002,-239.134615 z"
           id="path6713"
           sodipodi:nodetypes="cccc"
           inkscape:connector-curvature="0" />
      </g>
      <path
         style="fill:#a7a7a7;fill-opacity:1;fill-rule:evenodd;stroke:#656565;stroke-width:1px;stroke-linecap:butt;stroke-linejoin:miter;stroke-opacity:1"
         d="m 4.857143,38.428571 c -0.2142858,1 0.6071429,2.035714 1.9642857,2 l 36.1785713,0 c 1.285714,-0.03571 1.714286,-1.214286 1.428572,-2.178572 l -7.857143,-28.8214277 -26,0 -5.714286,28.9999997 z"
         id="path1316"
         sodipodi:nodetypes="ccccccc"
         inkscape:connector-curvature="0" />
      <path
         style="opacity:0.10857143;color:#000000;fill:#000000;fill-opacity:1;fill-rule:evenodd;stroke:#000000;stroke-width:0.99999958;stroke-linecap:butt;stroke-linejoin:miter;stroke-miterlimit:4;stroke-opacity:1;stroke-dasharray:none;stroke-dashoffset:0;marker:none;visibility:visible;display:inline;overflow:visible;font-family:Bitstream Vera Sans"
         d="m 9.162504,30.806458 30.232591,0 c 0.857202,0 1.547297,0.672286 1.547297,1.507367 l 1.327188,4.800935 c 0,0.835081 -0.690094,1.507367 -1.547297,1.507367 l -32.4445716,0 c -0.8572026,0 -1.5472972,-0.672286 -1.5472972,-1.507367 l 0.8847926,-4.800935 c 0,-0.835081 0.6900946,-1.507367 1.5472972,-1.507367 z"
         id="path2575"
         sodipodi:nodetypes="ccccccccc"
         inkscape:connector-curvature="0" />
      <path
         sodipodi:nodetypes="ccccccc"
         id="path2520"
         d="m 6.0478436,37.805569 c -0.1998613,0.932686 -0.3986473,1.579658 0.474919,1.579658 l 36.3146764,0 c 0.916057,0 0.741748,-0.73969 0.475266,-1.639066 l -7.542533,-27.2742 -24.249836,0 -5.4724924,27.333608 z"
         style="fill:none;stroke:#ffffff;stroke-width:0.9999997px;stroke-linecap:butt;stroke-linejoin:miter;stroke-opacity:0.3446328"
         inkscape:connector-curvature="0" />
      <path
         sodipodi:nodetypes="ccccccccc"
         id="path2518"
         d="m 9.6418018,29.928574 29.2878242,0 c 0.830415,0 1.498944,0.651277 1.498944,1.460261 l 1.285714,4.650907 c 0,0.808984 -0.668529,1.460261 -1.498944,1.460261 l -31.4306811,0 c -0.8304151,0 -1.4989443,-0.651277 -1.4989443,-1.460261 l 0.8571429,-4.650907 c 0,-0.808984 0.6685292,-1.460261 1.4989443,-1.460261 z"
         style="color:#000000;fill:#c5c5c5;fill-opacity:1;fill-rule:evenodd;stroke:#696969;stroke-width:0.99999964;stroke-linecap:butt;stroke-linejoin:miter;stroke-miterlimit:4;stroke-opacity:1;stroke-dasharray:none;stroke-dashoffset:0;marker:none;visibility:visible;display:inline;overflow:visible;font-family:Bitstream Vera Sans"
         inkscape:connector-curvature="0" />
      <path
         style="color:#000000;fill:url(#linearGradient5139);fill-opacity:1;fill-rule:evenodd;stroke:#696969;stroke-width:0.99999964;stroke-linecap:butt;stroke-linejoin:miter;stroke-miterlimit:4;stroke-opacity:1;stroke-dashoffset:0;marker:none;visibility:visible;display:inline;overflow:visible"
         d="m 9.6418018,27.785717 29.2878242,0 c 0.830415,0 1.498944,0.651277 1.498944,1.460261 l 1.285714,4.650907 c 0,0.808984 -0.668529,1.460261 -1.498944,1.460261 l -31.4306811,0 c -0.8304151,0 -1.4989443,-0.651277 -1.4989443,-1.460261 l 0.8571429,-4.650907 c 0,-0.808984 0.6685292,-1.460261 1.4989443,-1.460261 z"
         id="rect2225"
         sodipodi:nodetypes="ccccccccc"
         inkscape:connector-curvature="0" />
      <g
         id="g2578"
         transform="matrix(0.942549,0,0,0.942549,-0.222619,1.85586)">
        <path
           sodipodi:nodetypes="cczczcc"
           id="path2524"
           d="M 10.891973,11.500004 6.5714281,33.21429 c 0,0 26.2857149,1e-6 26.2857149,1e-6 12.584832,0 15.228163,-4.000001 15.228163,-4.000001 0,0 -3.357142,-1.178571 -4.785713,-6.142857 0,0 -3.060953,-11.571429 -3.060953,-11.571429 l -29.346667,0 z"
           style="fill:url(#linearGradient5141);fill-opacity:1;fill-rule:evenodd;stroke:#696969;stroke-width:1.06095243px;stroke-linecap:butt;stroke-linejoin:miter;stroke-opacity:1"
           inkscape:connector-curvature="0" />
        <path
           style="fill:none;stroke:#ffffff;stroke-width:1.06095195px;stroke-linecap:butt;stroke-linejoin:miter;stroke-opacity:1"
           d="M 11.803734,12.474609 7.8122567,32.239668 c 0,0 17.1442613,10e-7 24.4261253,10e-7 11.226639,0 14.110429,-2.850865 14.110429,-2.850865 0,0 -2.99306,-1.862842 -4.293392,-6.381499 0,0 -2.738563,-10.461267 -2.738563,-10.461267 l -27.513122,-0.07143 z"
           id="path2571"
           sodipodi:nodetypes="cccczcc"
           inkscape:connector-curvature="0" />
      </g>
      <path
         style="color:#000000;fill:#9b9b9b;fill-opacity:1;fill-rule:evenodd;stroke:#696969;stroke-width:0.99999952;stroke-linecap:butt;stroke-linejoin:miter;stroke-miterlimit:4;stroke-opacity:1;stroke-dashoffset:0;marker:none;visibility:visible;display:inline;overflow:visible"
         d="m 11.315699,7.4285707 25.178816,0 c 0.873117,0 1.576024,0.6687707 1.576024,1.4994859 l 0.357143,2.1438854 c 0,0.830715 -0.702907,1.499486 -1.576024,1.499486 l -25.893102,0 c -0.873117,0 -1.5760237,-0.668771 -1.5760237,-1.499486 L 9.7396752,8.9280566 c 0,-0.8307152 0.7029068,-1.4994859 1.5760238,-1.4994859 z"
         id="rect2522"
         sodipodi:nodetypes="ccccccccc"
         inkscape:connector-curvature="0" />
      <path
         style="font-size:17.57787704px;font-style:normal;font-variant:normal;font-weight:bold;font-stretch:normal;line-height:100%;writing-mode:lr-tb;text-anchor:start;fill:#000000;fill-opacity:1;stroke:none;font-family:Segoe"
         d="m 20.969159,22.39302 c 0.988415,0.09376 1.722384,0.372403 2.201904,0.835941 0.480118,0.45834 0.677991,1.044278 0.593617,1.757818 -0.12381,1.04688 -0.688772,1.890633 -1.694884,2.531258 -1.006129,0.640628 -2.30754,0.96094 -3.904237,0.960941 -1.225818,-1e-6 -2.259114,-0.192709 -3.099891,-0.578127 l 0.240212,-2.031257 c 0.883441,0.609379 1.887779,0.914067 3.013017,0.914066 0.898927,10e-7 1.607657,-0.145832 2.126195,-0.437501 0.519141,-0.296875 0.810435,-0.713542 0.873883,-1.250005 0.06651,-0.562498 -0.142564,-0.973957 -0.627231,-1.234379 -0.484681,-0.260413 -1.292778,-0.390621 -2.424294,-0.390626 l -1.272962,0 0.206952,-1.750005 1.357826,0 c 0.892639,6e-6 1.590709,-0.135411 2.094211,-0.406252 0.504105,-0.276035 0.786032,-0.666661 0.845785,-1.171879 0.05604,-0.473951 -0.09073,-0.85416 -0.440302,-1.140628 -0.349591,-0.28645 -0.904699,-0.42968 -1.665326,-0.429689 -0.961798,9e-6 -1.903418,0.28126 -2.824862,0.843752 l 0.23005,-1.945318 c 1.032386,-0.437491 2.189775,-0.656241 3.472171,-0.656252 1.238381,1.1e-5 2.188543,0.257824 2.850491,0.773439 0.668216,0.515637 0.954902,1.174493 0.860059,1.976569 -0.08809,0.744803 -0.383313,1.354179 -0.885674,1.828131 -0.501765,0.468758 -1.210668,0.802092 -2.12671,1.000003"
         id="text2541"
         inkscape:connector-curvature="0" />
      <path
         style="font-size:17.57787704px;font-style:normal;font-variant:normal;font-weight:bold;font-stretch:normal;line-height:100%;writing-mode:lr-tb;text-anchor:start;fill:#000000;fill-opacity:1;stroke:none;font-family:Segoe"
         d="m 33.007379,28.45554 -2.508206,0 -1.111298,-9.359406 -3.092502,0.796878 -0.208716,-1.757818 5.54134,-1.29688 1.379382,11.617226"
         id="text2545"
         inkscape:connector-curvature="0" />
      <path
         sodipodi:type="arc"
         style="opacity:0.52571429;color:#000000;fill:#fefefe;fill-opacity:1;fill-rule:evenodd;stroke:none;stroke-width:0.99999964;marker:none;visibility:visible;display:inline;overflow:visible"
         id="path2559"
         sodipodi:cx="11.5"
         sodipodi:cy="9.9285717"
         sodipodi:rx="1.3571428"
         sodipodi:ry="1.3571428"
         d="m 12.857143,9.9285717 c 0,0.7495293 -0.607614,1.3571433 -1.357143,1.3571433 -0.749529,0 -1.357143,-0.607614 -1.357143,-1.3571433 0,-0.7495293 0.607614,-1.3571428 1.357143,-1.3571428 0.749529,0 1.357143,0.6076135 1.357143,1.3571428 z"
         transform="matrix(0.684211,0,0,0.684211,3.560154,2.278197)" />
      <path
         style="opacity:0.30285716;fill:none;stroke:#ffffff;stroke-width:1.00000012px;stroke-linecap:round;stroke-linejoin:miter;stroke-opacity:1"
         d="m 13.042053,8.6010151 23.329256,0"
         id="path2561"
         sodipodi:nodetypes="cc"
         inkscape:connector-curvature="0" />
    </g>
    <g
       transform="matrix(0.03269062,0,0,0.03269064,60.561812,17.976032)"
       id="g5575">
      <path
         transform="matrix(16.610314,0,0,8.144113,-1329.3456,218.30167)"
         style="opacity:0.29946522;fill:url(#radialGradient4982);fill-opacity:1;fill-rule:evenodd;stroke:none;stroke-width:1;marker:none;visibility:visible;display:inline;overflow:visible"
         sodipodi:type="arc"
         sodipodi:ry="8.3968935"
         sodipodi:rx="15.644737"
         sodipodi:cy="36.421127"
         sodipodi:cx="24.837126"
         id="path3759-2"
         d="m 40.481863,36.421127 c 0,4.637477 -7.004387,8.396894 -15.644737,8.396894 -8.64035,0 -15.6447375,-3.759417 -15.6447375,-8.396894 0,-4.637476 7.0043875,-8.396893 15.6447375,-8.396893 8.64035,0 15.644737,3.759417 15.644737,8.396893 z" />
      <path
         transform="matrix(16.610314,0,0,8.144113,-1090.6999,493.4717)"
         style="opacity:0.29946522;fill:url(#radialGradient4984);fill-opacity:1;fill-rule:evenodd;stroke:none;stroke-width:1;marker:none;visibility:visible;display:inline;overflow:visible"
         sodipodi:type="arc"
         sodipodi:ry="8.3968935"
         sodipodi:rx="15.644737"
         sodipodi:cy="36.421127"
         sodipodi:cx="24.837126"
         id="path8660-1"
         d="m 40.481863,36.421127 c 0,4.637477 -7.004387,8.396894 -15.644737,8.396894 -8.64035,0 -15.6447375,-3.759417 -15.6447375,-8.396894 0,-4.637476 7.0043875,-8.396893 15.6447375,-8.396893 8.64035,0 15.644737,3.759417 15.644737,8.396893 z" />
      <path
         inkscape:connector-curvature="0"
         style="fill:url(#linearGradient4986);fill-opacity:1;fill-rule:evenodd;stroke:#4e9a06;stroke-width:13.67706108;stroke-linecap:round;stroke-linejoin:round;stroke-miterlimit:10;stroke-opacity:1;stroke-dasharray:none;stroke-dashoffset:0;marker:none;visibility:visible;display:inline;overflow:visible"
         sodipodi:nodetypes="cccccccc"
         id="path8643-1"
         d="m -1057.6847,507.14384 245.88171,0 0,-177.15302 109.83402,0 -234.22219,-274.200637 -230.40724,273.407917 108.9862,0.90665 -0.072,177.03909 z" />
      <path
         inkscape:connector-curvature="0"
         style="opacity:0.5080214;fill:url(#radialGradient4988);fill-opacity:1;fill-rule:evenodd;stroke:none;stroke-width:1;marker:none;visibility:visible;display:inline;overflow:visible"
         sodipodi:nodetypes="cccscc"
         id="path8645-3"
         d="m -1152.1421,322.94849 101.351,0 0.9109,89.74613 c 77.3521,-150.45392 218.73842,-120.96549 226.96173,-213.7404 0,0 -113.38046,-130.543527 -113.38046,-130.543527 L -1152.1421,322.94849 z" />
      <path
         inkscape:connector-curvature="0"
         style="opacity:0.48128339;fill:none;stroke:#ffffff;stroke-width:13.67706108;stroke-linecap:butt;stroke-linejoin:miter;stroke-miterlimit:10;stroke-opacity:1;stroke-dasharray:none;stroke-dashoffset:0;marker:none;visibility:visible;display:inline;overflow:visible"
         sodipodi:nodetypes="cccccccc"
         id="path8658-2"
         d="m -1042.4903,493.4668 217.46297,0 0,-177.70532 93.12708,0 -204.47704,-238.486277 -201.14191,239.080127 93.2826,-0.30224 1.7463,177.41371 z" />
      <path
         inkscape:connector-curvature="0"
         style="fill:url(#radialGradient4990);fill-opacity:1;fill-rule:evenodd;stroke:#204a87;stroke-width:13.67706108;stroke-linecap:round;stroke-linejoin:round;stroke-miterlimit:10;stroke-opacity:1;stroke-dasharray:none;stroke-dashoffset:0;marker:none;visibility:visible;display:inline;overflow:visible"
         sodipodi:nodetypes="cccccccc"
         id="path3738-5"
         d="m -801.99292,337.8212 245.88175,0 0,177.15304 109.83399,0 -234.22216,274.20065 -230.40726,-273.40794 108.98617,-0.90665 -0.0725,-177.0391 z" />
      <path
         inkscape:connector-curvature="0"
         style="opacity:0.5080214;fill:url(#radialGradient4992);fill-opacity:1;fill-rule:evenodd;stroke:none;stroke-width:1;marker:none;visibility:visible;display:inline;overflow:visible"
         sodipodi:nodetypes="cccscc"
         id="path3740-3"
         d="m -896.45035,522.01655 101.3511,0 0.91089,-89.74611 c 77.35208,150.45392 218.73839,120.96548 226.96171,213.74039 0,0 -113.38047,130.54347 -113.38047,130.54347 L -896.45035,522.01655 z" />
      <path
         inkscape:connector-curvature="0"
         style="opacity:0.48128339;fill:none;stroke:#ffffff;stroke-width:13.67706108;stroke-linecap:butt;stroke-linejoin:miter;stroke-miterlimit:10;stroke-opacity:1;stroke-dasharray:none;stroke-dashoffset:0;marker:none;visibility:visible;display:inline;overflow:visible"
         sodipodi:nodetypes="cccccccc"
         id="path3742-5"
         d="m -786.79853,351.49824 217.46302,0 0,177.70533 93.1271,0 -204.47708,238.4863 -201.1419,-239.08016 93.28259,0.30226 1.74627,-177.41373 z" />
    </g>
  </g>
</svg>
